HIERARCHY
ROOT hip
{
	OFFSET 0.000000 0.000000 0.000000 
	CHANNELS 6 Xposition Yposition Zposition Xrotation Zrotation Yrotation
	JOINT abdomen
	{
		OFFSET 0.000000 3.402643 0.000000 
		CHANNELS 3 Xrotation Zrotation Yrotation
		JOINT chest
		{
			OFFSET 0.000000 8.438565 -0.680529 
			CHANNELS 3 Xrotation Zrotation Yrotation
			JOINT neck
			{
				OFFSET 0.000000 10.207942 -0.272212 
				CHANNELS 3 Xrotation Zrotation Yrotation
				JOINT head
				{
					OFFSET 0.000000 3.130431 0.000000 
					CHANNELS 3 Xrotation Zrotation Yrotation
					End Site
					{
						OFFSET 0.000000 3.130435 0.000000 
					}
				}
			}
			JOINT lCollar
			{
				OFFSET 3.470700 6.669187 -0.816635 
				CHANNELS 3 Yrotation Zrotation Xrotation
				JOINT lShldr
				{
					OFFSET 3.198488 0.000000 0.000000 
					CHANNELS 3 Zrotation Yrotation Xrotation
					JOINT lForeArm
					{
						OFFSET 10.139888 0.000000 0.000000 
						CHANNELS 3 Yrotation Zrotation Xrotation
						JOINT lHand
						{
							OFFSET 8.370511 0.000000 0.000000 
							CHANNELS 3 Zrotation Yrotation Xrotation
							End Site
							{
								OFFSET 4.083176 0.000000 0.000000 
							}
						}
					}
				}
			}
			JOINT rCollar
			{
				OFFSET -3.470700 6.669187 -0.816635 
				CHANNELS 3 Yrotation Zrotation Xrotation
				JOINT rShldr
				{
					OFFSET -3.198488 0.000000 0.000000 
					CHANNELS 3 Zrotation Yrotation Xrotation
					JOINT rForeArm
					{
						OFFSET -10.139888 0.000000 0.000000 
						CHANNELS 3 Yrotation Zrotation Xrotation
						JOINT rHand
						{
							OFFSET -8.370511 0.000000 0.000000 
							CHANNELS 3 Zrotation Yrotation Xrotation
							End Site
							{
								OFFSET -4.083176 0.000000 0.000000 
							}
						}
					}
				}
			}
		}
	}
	JOINT lThigh
	{
		OFFSET 5.308129 -1.633274 1.361059 
		CHANNELS 3 Xrotation Zrotation Yrotation
		JOINT lShin
		{
			OFFSET -2.041588 -20.007561 0.000000 
			CHANNELS 3 Xrotation Zrotation Yrotation
			JOINT lFoot
			{
				OFFSET 0.000000 -19.190928 -1.224953 
				CHANNELS 3 Xrotation Yrotation Zrotation
				End Site
				{
					OFFSET 0.000000 -2.449906 4.627600 
				}
			}
		}
	}
	JOINT rThigh
	{
		OFFSET -5.308129 -1.633274 1.361059 
		CHANNELS 3 Xrotation Zrotation Yrotation
		JOINT rShin
		{
			OFFSET 2.041588 -20.007561 0.000000 
			CHANNELS 3 Xrotation Zrotation Yrotation
			JOINT rFoot
			{
				OFFSET 0.000000 -19.190928 -1.224953 
				CHANNELS 3 Xrotation Yrotation Zrotation
				End Site
				{
					OFFSET 0.000000 -2.449906 4.627600 
				}
			}
		}
	}
}
MOTION
Frames: 20
Frame Time: 0.016667
-8.822721 74.362701 90.789185 -9.425897 10.222888 9.478357 39.699982 -11.248477 -6.916744 -0.597550 1.513627 -0.957136 -13.614233 -3.335857 0.604172 14.735095 -3.418610 -6.016679 -15.457060 -7.772702 -0.410310 -54.697239 8.564518 -12.735786 -29.572271 -5.000000 28.140421 -5.798096 -2.694950 -1.874401 16.654705 7.453477 -0.385653 60.653397 1.136797 -4.447355 36.186623 5.000000 19.489670 18.366488 -19.426901 0.123557 -32.240284 1.726957 11.436218 76.584404 -0.886643 -4.376533 -29.255695 5.200924 -4.257525 25.721670 -7.315058 -18.058857 6.318453 3.275894 0.469515 -15.848149 -11.300512 0.726276 
-8.610925 74.709969 91.249176 -8.998768 10.237967 9.290638 39.433140 -11.668322 -6.922740 -0.560552 1.513610 -1.074296 -14.013795 -3.149480 0.595697 14.472340 -3.339943 -6.172654 -15.435077 -7.609514 -0.392435 -55.235508 7.914104 -12.226075 -29.116930 -5.000000 27.617891 -5.730100 -2.725331 -1.619327 16.439661 7.424219 -0.384138 61.271660 0.993560 -4.642308 35.769276 5.000000 19.137465 18.336386 -19.411833 0.354885 -30.898426 1.084251 11.284796 75.024696 -1.034817 -4.326220 -29.952763 5.461457 -4.008376 25.303707 -7.831451 -18.655815 6.907817 3.156687 0.513348 -14.814937 -10.840563 1.377247 
-8.391676 75.129684 91.707916 -8.604175 10.157619 9.059289 39.148994 -11.961195 -6.909822 -0.513830 1.542888 -1.181691 -14.423085 -2.963103 0.586717 14.219960 -3.280833 -6.309701 -15.365843 -7.482734 -0.385895 -55.766663 7.236409 -11.694509 -28.715233 -5.000000 27.125471 -5.619203 -2.745579 -1.465233 16.215052 7.424220 -0.384139 61.821171 0.853940 -4.811541 35.379910 5.000000 18.794128 18.419632 -19.373888 0.654487 -29.464828 0.496534 11.138985 73.280167 -1.149379 -4.215131 -30.468559 5.856010 -3.689437 24.695692 -8.427677 -19.198835 7.885331 3.158558 0.528835 -13.686378 -10.182067 1.932280 
-8.172397 75.585609 92.166183 -8.252776 9.922606 8.824578 38.853256 -12.079757 -6.864592 -0.486389 1.591699 -1.269558 -14.803534 -2.825001 0.585571 13.984622 -3.231811 -6.387691 -15.308078 -7.421643 -0.392217 -56.229527 6.585406 -11.178151 -28.359219 -5.000000 26.647291 -5.506348 -2.779919 -1.349590 16.001703 7.460537 -0.395465 62.273083 0.709482 -4.963192 34.980621 5.000000 18.467556 18.515308 -19.319540 0.990650 -27.970230 0.076575 10.925392 71.477577 -1.256377 -4.072981 -30.847853 6.202633 -3.428925 23.935286 -8.935596 -19.696360 9.200349 3.208222 0.638097 -12.522174 -9.474529 2.440871 
-7.952984 76.186409 92.622620 -8.132955 9.107528 8.586862 38.551876 -11.465541 -6.640657 -0.487980 1.708876 -1.308599 -15.068362 -2.841383 0.608261 13.820714 -3.213009 -6.289639 -15.231885 -7.694720 -0.406299 -56.449253 5.999043 -10.656896 -28.196451 -5.000000 26.257576 -5.433659 -2.842164 -1.405548 15.827306 7.655613 -0.405562 62.363453 0.545144 -5.037916 34.613590 5.000000 18.248552 18.625698 -19.236334 1.517237 -26.207111 0.214261 10.524131 69.225632 -1.382599 -3.908752 -30.735418 6.408139 -3.248762 22.584221 -9.218445 -19.988977 11.837349 3.489976 0.866304 -11.135895 -8.360232 2.789227 
-7.733573 76.787209 93.079056 -8.007689 8.291541 8.341130 38.252354 -10.854801 -6.409782 -0.489722 1.835818 -1.357712 -15.333100 -2.848110 0.629009 13.657418 -3.194130 -6.201340 -15.155768 -7.967800 -0.420372 -56.673824 5.414818 -10.144166 -28.021069 -5.000000 25.870726 -5.351071 -2.904025 -1.462637 15.643249 7.860444 -0.416160 62.453728 0.381008 -5.113241 34.237499 5.000000 18.019779 18.742844 -19.144745 2.039756 -24.451305 0.361020 10.145462 66.951752 -1.490119 -3.786026 -30.585608 6.660693 -3.050019 21.250597 -9.481441 -20.269543 14.488969 3.755322 1.126644 -9.795896 -7.318105 3.067412 
-7.518795 77.490646 93.524078 -8.148430 6.663726 7.994258 37.917439 -9.284782 -5.739407 -0.452666 1.952990 -1.328399 -15.501971 -3.009318 0.673122 13.602977 -3.283112 -5.937546 -15.092336 -8.601712 -0.454460 -56.581303 4.865821 -9.720675 -28.032696 -5.000000 25.593126 -5.270504 -2.997995 -1.653542 15.480333 8.270069 -0.438733 62.050110 0.270474 -5.109874 33.926949 5.000000 17.880432 18.763544 -19.068577 2.609526 -22.437016 1.454348 9.720103 64.337845 -1.606333 -3.584792 -30.102726 6.697948 -2.945737 19.266432 -9.219375 -20.303392 18.787910 4.164011 1.631648 -8.321887 -6.254721 3.268889 
-7.305171 78.219749 93.966240 -8.349142 4.830274 7.615878 37.591034 -7.468003 -4.974769 -0.415571 2.060396 -1.289316 -15.662411 -3.217332 0.734163 13.567836 -3.401491 -5.635338 -15.030140 -9.333144 -0.493743 -56.403812 4.311271 -9.317098 -28.073999 -5.000000 25.358059 -5.187990 -3.102948 -1.863195 15.317976 8.728455 -0.462471 61.538120 0.168262 -5.092875 33.640430 5.000000 17.753099 18.774017 -18.997364 3.192178 -20.332489 2.799509 9.359492 61.602516 -1.704648 -3.468682 -29.551739 6.647475 -2.908669 17.109579 -8.845892 -20.259768 23.539667 4.575444 2.228107 -6.819088 -5.131510 3.435366 
-7.100318 78.957054 94.391167 -8.604293 2.810240 7.118017 37.331429 -5.481815 -4.018480 -0.398324 2.187330 -1.299054 -15.746277 -3.512235 0.808908 13.593212 -3.500891 -5.254006 -14.959064 -10.103582 -0.533495 -56.192150 3.790655 -8.941594 -28.240232 -5.000000 25.132843 -5.104382 -3.189642 -2.094839 15.194545 9.147824 -0.484162 60.945663 0.091530 -5.036555 33.412399 5.000000 17.641123 18.691570 -18.887400 3.767432 -18.170895 4.422675 9.206840 58.731548 -1.829744 -3.298581 -28.926260 6.540923 -2.811454 14.702047 -8.348521 -20.280094 28.974213 4.858271 2.970438 -5.537983 -4.181779 3.573602 
-6.908617 79.706688 94.790192 -8.944886 0.524031 6.426137 37.171162 -3.237400 -2.769144 -0.391976 2.333783 -1.397054 -15.745729 -3.950479 0.915253 13.723643 -3.552165 -4.765458 -14.869438 -10.913027 -0.577005 -55.926258 3.290256 -8.603409 -28.595966 -5.000000 24.933472 -5.006881 -3.271569 -2.396135 15.148792 9.498913 -0.503910 60.243595 0.035521 -4.928279 33.258270 5.000000 17.561930 18.489210 -18.730436 4.338483 -15.852776 6.480257 9.432917 55.652039 -2.004676 -3.174875 -28.205830 6.239054 -2.739438 11.895774 -7.662575 -20.384188 35.476025 4.931966 3.881868 -4.663043 -3.522609 3.686031 
-6.716916 80.456306 95.189232 -9.259237 -1.758676 5.754629 37.061989 -1.000027 -1.529585 -0.395304 2.490003 -1.475145 -15.745566 -4.390173 1.012026 13.843568 -3.613034 -4.266566 -14.790334 -11.732216 -0.621173 -55.660110 2.789868 -8.256760 -28.943169 -5.000000 24.739279 -4.909337 -3.360609 -2.677380 15.091761 9.852546 -0.512799 59.541382 -0.017819 -4.819405 33.105907 5.000000 17.471889 18.291159 -18.571318 4.906305 -13.523397 8.543149 9.736124 52.589931 -2.160131 -3.066718 -27.502306 5.878258 -2.668227 9.084288 -6.998478 -20.485752 41.956810 4.937585 4.755705 -3.746177 -2.853682 3.781270 
-6.551342 81.139404 95.540230 -9.641791 -3.873096 4.805714 37.181770 1.041236 -0.182879 -0.448265 2.568077 -1.602022 -15.607738 -4.773397 1.090470 14.002795 -3.771486 -3.689716 -14.727753 -12.239332 -0.649379 -55.515564 2.348980 -7.912672 -29.586403 -5.000000 24.352188 -4.886776 -3.468980 -2.805912 15.084543 9.947527 -0.527134 59.075035 -0.087716 -4.698618 33.227806 5.000000 17.223986 17.842354 -18.484850 5.367723 -11.023751 10.632426 10.795222 49.435863 -2.374298 -2.982589 -26.734081 5.337112 -2.821316 6.141153 -6.308085 -20.922888 48.965126 4.361668 5.453120 -4.194785 -2.979367 3.807369 
-6.385769 81.822495 95.891228 -9.985595 -5.992204 3.878111 37.378284 3.066472 1.171694 -0.502023 2.655901 -1.729329 -15.459942 -5.158080 1.159359 14.148946 -3.939546 -3.103142 -14.655663 -12.746448 -0.675547 -55.371883 1.906779 -7.570918 -30.231831 -5.000000 23.965349 -4.874725 -3.576105 -2.914448 15.075696 10.045050 -0.532178 58.598373 -0.148084 -4.582058 33.347202 5.000000 16.984455 17.395533 -18.393173 5.828378 -8.475515 12.663578 11.964864 46.269951 -2.552013 -2.893681 -25.963648 4.777283 -2.988572 3.191112 -5.631844 -21.395761 55.963829 3.708105 6.068600 -4.617096 -3.145107 3.794804 
-6.240199 82.450562 96.215813 -10.261496 -8.026815 2.918190 37.656101 5.000366 2.586324 -0.566198 2.714409 -1.904996 -15.322650 -5.552405 1.229774 14.339475 -4.068322 -2.526342 -14.611533 -13.126781 -0.697357 -55.298676 1.473737 -7.243019 -31.019604 -5.000000 23.451548 -4.879917 -3.655151 -2.917269 15.075512 10.025547 -0.531169 58.200710 -0.215765 -4.490031 33.588932 5.000000 16.688120 16.856918 -18.383877 6.062093 -5.955537 14.600586 13.405644 43.168713 -2.782766 -2.774047 -25.139845 4.091652 -3.321497 0.320685 -4.828490 -21.880447 62.423141 2.937072 6.237432 -5.877882 -3.637536 3.666041 
-6.107963 83.041939 96.522797 -10.485977 -10.004066 1.952246 37.999218 6.858664 4.054141 -0.641364 2.753349 -2.139687 -15.195910 -5.956372 1.301713 14.544862 -4.177328 -1.929386 -14.585951 -13.419340 -0.712454 -55.267555 1.060109 -6.935447 -31.903137 -5.000000 22.860229 -4.909082 -3.729345 -2.850210 15.094217 9.937773 -0.526629 57.852058 -0.283587 -4.405847 33.914604 5.000000 16.345848 16.252298 -18.436958 6.134246 -3.428002 16.451027 15.074184 40.101093 -3.012766 -2.676181 -24.290663 3.450861 -3.680784 -2.489231 -3.949738 -22.418055 68.519295 2.119179 6.092392 -7.691284 -4.382255 3.416583 
-5.980530 83.615448 96.820663 -10.653881 -11.951399 0.986284 38.426308 8.667973 5.547759 -0.736490 2.782498 -2.374371 -15.087978 -6.352150 1.362655 14.730654 -4.285903 -1.361653 -14.567791 -13.704603 -0.717847 -55.236607 0.640950 -6.620025 -32.833237 -5.000000 22.207949 -4.949312 -3.793392 -2.773599 15.101349 9.833041 -0.511789 57.504196 -0.363832 -4.323981 34.270493 5.000000 15.989370 15.641421 -18.502672 6.187300 -0.879808 18.170788 16.899971 37.027359 -3.236076 -2.595036 -23.447075 2.812578 -4.059431 -5.280573 -3.072044 -22.946108 74.300499 1.367020 5.862543 -9.600880 -5.152738 3.133989 
-5.872304 84.117416 97.082092 -10.710304 -13.769530 0.028455 38.967907 10.321776 7.099328 -0.909605 2.762792 -2.599271 -15.038350 -6.718960 1.418140 14.858383 -4.423374 -0.823141 -14.610306 -13.967903 -0.733769 -55.177395 0.242956 -6.244767 -33.930630 -5.000000 21.299261 -4.979480 -3.866596 -2.696687 15.070734 9.686758 -0.504214 57.178272 -0.482042 -4.250343 34.800236 5.000000 15.516282 14.944493 -18.681000 6.160512 1.461877 19.709372 18.883322 34.202274 -3.460114 -2.513744 -22.526949 2.191303 -4.504373 -7.945818 -2.106178 -23.324095 78.823921 0.869164 5.439853 -11.964518 -6.005804 2.693438 
-5.764081 84.619377 97.343506 -10.738290 -15.593780 -0.924213 39.574493 11.973293 8.667727 -1.083357 2.752817 -2.833454 -15.000058 -7.084281 1.485556 14.973713 -4.550725 -0.284635 -14.652761 -14.221450 -0.746859 -55.119736 -0.157938 -5.883667 -35.029453 -5.000000 20.397053 -5.020068 -3.930455 -2.619254 15.049902 9.540474 -0.496635 56.862370 -0.606879 -4.170187 35.327419 5.000000 15.054401 14.251760 -18.850985 6.132878 3.922492 21.186460 20.969952 31.307671 -3.702976 -2.442097 -21.596226 1.574830 -4.977208 -10.602688 -1.140747 -23.754986 83.335251 0.380933 4.982333 -14.355074 -6.799256 2.249299 
-5.677763 85.031456 97.579292 -10.692486 -17.101170 -1.831550 40.237797 13.247489 10.150806 -1.274711 2.742877 -3.087684 -15.086389 -7.393157 1.532282 14.944087 -4.697236 0.205189 -14.713740 -14.396982 -0.755913 -55.092049 -0.567581 -5.514834 -36.202549 -5.000000 19.342567 -5.063231 -3.954492 -2.536261 15.019161 9.374685 -0.486452 56.534515 -0.699169 -4.075019 35.923218 5.000000 14.489876 13.685981 -19.111469 6.008381 6.103114 22.266300 23.038548 28.714190 -3.905542 -2.325953 -20.589653 0.989741 -5.550420 -13.178464 -0.348980 -24.110668 86.471275 0.136760 4.847472 -16.517738 -7.440141 1.704218 
-5.596925 85.421059 97.808693 -10.610090 -18.525469 -2.720589 40.961426 14.421425 11.633120 -1.466021 2.732925 -3.361444 -15.213840 -7.670103 1.595026 14.874658 -4.833649 0.675546 -14.784250 -14.553011 -0.763954 -55.075043 -0.983657 -5.137981 -37.375046 -5.000000 18.265570 -5.116163 -3.951428 -2.474671 14.978677 9.208898 -0.477883 56.205727 -0.776857 -3.976107 36.520763 5.000000 13.915140 13.155551 -19.402977 5.851023 8.248231 23.189867 25.140957 26.164873 -4.082850 -2.141686 -19.574944 0.414925 -6.124210 -15.745922 0.374059 -24.515898 89.299973 -0.126833 4.784005 -18.602242 -7.921239 1.200815 
